<svg width="865" height="272" viewBox="0 0 865 272" fill="none" xmlns="http://www.w3.org/2000/svg">
<g filter="url(#filter0_d_1_647)">
<path fill-rule="evenodd" clip-rule="evenodd" d="M78 25C50.938 25 29 46.938 29 74V190C29 217.062 50.9381 239 78 239H787C814.062 239 836 217.062 836 190V74C836 46.938 814.062 25 787 25H78ZM101 71.5081C101 82.8299 91.8218 92.0081 80.5 92.0081C69.1782 92.0081 60 82.8299 60 71.5081C60 60.1863 69.1782 51.0081 80.5 51.0081C91.8218 51.0081 101 60.1863 101 71.5081ZM101 136.508C101 147.83 91.8218 157.008 80.5 157.008C69.1782 157.008 60 147.83 60 136.508C60 125.186 69.1782 116.008 80.5 116.008C91.8218 116.008 101 125.186 101 136.508ZM80.5 222.008C91.8218 222.008 101 212.83 101 201.508C101 190.186 91.8218 181.008 80.5 181.008C69.1782 181.008 60 190.186 60 201.508C60 212.83 69.1782 222.008 80.5 222.008Z" fill="#F8FAE4"/>
</g>
<defs>
<filter id="filter0_d_1_647" x="0" y="0" width="865" height="272" filterUnits="userSpaceOnUse" color-interpolation-filters="sRGB">
<feFlood flood-opacity="0" result="BackgroundImageFix"/>
<feColorMatrix in="SourceAlpha" type="matrix" values="0 0 0 0 0 0 0 0 0 0 0 0 0 0 0 0 0 0 127 0" result="hardAlpha"/>
<feOffset dy="4"/>
<feGaussianBlur stdDeviation="14.5"/>
<feComposite in2="hardAlpha" operator="out"/>
<feColorMatrix type="matrix" values="0 0 0 0 0 0 0 0 0 0 0 0 0 0 0 0 0 0 0.15 0"/>
<feBlend mode="normal" in2="BackgroundImageFix" result="effect1_dropShadow_1_647"/>
<feBlend mode="normal" in="SourceGraphic" in2="effect1_dropShadow_1_647" result="shape"/>
</filter>
</defs>
</svg>
