<svg width="865" height="604" viewBox="0 0 865 604" fill="none" xmlns="http://www.w3.org/2000/svg">
<g filter="url(#filter0_d_1_515)">
<path fill-rule="evenodd" clip-rule="evenodd" d="M78 25C50.938 25 29 46.9381 29 74V522C29 549.062 50.9381 571 78 571H787C814.062 571 836 549.062 836 522V74C836 46.938 814.062 25 787 25H78ZM101 72.4805C101 83.8024 91.8218 92.9805 80.5 92.9805C69.1782 92.9805 60 83.8024 60 72.4805C60 61.1587 69.1782 51.9805 80.5 51.9805C91.8218 51.9805 101 61.1587 101 72.4805ZM101 137.481C101 148.802 91.8218 157.981 80.5 157.981C69.1782 157.981 60 148.802 60 137.481C60 126.159 69.1782 116.981 80.5 116.981C91.8218 116.981 101 126.159 101 137.481ZM80.5 222.981C91.8218 222.981 101 213.802 101 202.481C101 191.159 91.8218 181.981 80.5 181.981C69.1782 181.981 60 191.159 60 202.481C60 213.802 69.1782 222.981 80.5 222.981ZM101 267.481C101 278.802 91.8218 287.981 80.5 287.981C69.1782 287.981 60 278.802 60 267.481C60 256.159 69.1782 246.981 80.5 246.981C91.8218 246.981 101 256.159 101 267.481ZM80.5 352.981C91.8218 352.981 101 343.802 101 332.481C101 321.159 91.8218 311.981 80.5 311.981C69.1782 311.981 60 321.159 60 332.481C60 343.802 69.1782 352.981 80.5 352.981ZM101 397.481C101 408.802 91.8218 417.981 80.5 417.981C69.1782 417.981 60 408.802 60 397.481C60 386.159 69.1782 376.981 80.5 376.981C91.8218 376.981 101 386.159 101 397.481ZM80.5 482.981C91.8218 482.981 101 473.802 101 462.481C101 451.159 91.8218 441.981 80.5 441.981C69.1782 441.981 60 451.159 60 462.481C60 473.802 69.1782 482.981 80.5 482.981ZM101 527.481C101 538.802 91.8218 547.981 80.5 547.981C69.1782 547.981 60 538.802 60 527.481C60 516.159 69.1782 506.981 80.5 506.981C91.8218 506.981 101 516.159 101 527.481Z" fill="#F8FAE4"/>
</g>
<defs>
<filter id="filter0_d_1_515" x="0" y="0" width="865" height="604" filterUnits="userSpaceOnUse" color-interpolation-filters="sRGB">
<feFlood flood-opacity="0" result="BackgroundImageFix"/>
<feColorMatrix in="SourceAlpha" type="matrix" values="0 0 0 0 0 0 0 0 0 0 0 0 0 0 0 0 0 0 127 0" result="hardAlpha"/>
<feOffset dy="4"/>
<feGaussianBlur stdDeviation="14.5"/>
<feComposite in2="hardAlpha" operator="out"/>
<feColorMatrix type="matrix" values="0 0 0 0 0 0 0 0 0 0 0 0 0 0 0 0 0 0 0.15 0"/>
<feBlend mode="normal" in2="BackgroundImageFix" result="effect1_dropShadow_1_515"/>
<feBlend mode="normal" in="SourceGraphic" in2="effect1_dropShadow_1_515" result="shape"/>
</filter>
</defs>
</svg>
