<svg width="160" height="198" viewBox="0 0 160 198" fill="none" xmlns="http://www.w3.org/2000/svg">
<path d="M103.615 121.793C104.597 125.333 106.126 136.017 102.176 138.819C96.909 142.552 88.9007 140.206 85.9106 135.339C80.8774 127.144 80.6942 116.62 81.7403 107.306C82.0147 104.87 82.4137 102.455 82.8815 100.053C92.5824 103.631 100.621 111.003 103.615 121.793ZM245.199 26.9624C186.363 -32.7161 95.3648 17.0777 73.3756 86.5855C66.2438 85.8037 59.096 86.365 52.6591 88.5299C32.1826 95.4134 17.5226 112.16 9.36809 131.721C1.39875 150.826 -4.63176 177.749 8.0384 196.036C10.1905 199.143 15.0623 196.881 13.3845 193.262C-1.75937 160.591 24.2769 107.125 59.1298 98.6943C62.8531 97.7928 66.7012 97.4618 70.5105 97.6219C69.9006 100.614 69.3796 103.626 69.0391 106.666C67.313 122.142 69.6794 142.271 83.8344 151.773C95.9043 159.873 110.137 153.647 115.19 140.612C124.75 115.971 107.348 96.5167 85.656 89.2902C105.03 28.6076 183.593 -15.1015 235.763 35.7115C241.653 41.4467 251.053 32.8991 245.199 26.9624Z" fill="#80BB3A"/>
</svg>
