<svg width="229" height="224" viewBox="0 0 229 224" fill="none" xmlns="http://www.w3.org/2000/svg">
<path d="M59.8572 81.8235C40.401 82.4203 44.6081 60.316 55.7494 52.4228C63.4836 46.9429 73.0455 44.4894 82.4845 43.8221C87.2733 61.0113 81.468 81.1595 59.8572 81.8235ZM-100.343 135.84C-98.0506 95.5034 -78.0996 56.5967 -44.642 33.5372C-13.908 12.3523 43.2771 -3.52862 73.3733 27.37C75.0574 29.1007 76.5547 31.0691 77.8658 33.1878C70.7338 34.2655 63.7376 36.3433 57.0151 39.663C41.2381 47.446 26.616 68.6922 41.5644 84.6781C55.9387 100.05 80.6229 88.2374 89.6184 73.126C95.1526 63.8231 96.0242 53.532 93.6845 43.8104C129.351 45.9324 163.456 67.8073 185.413 94.985C198.064 110.641 207.535 128.767 212.89 148.186C218.565 168.783 222.298 197.384 207.812 215.096C203.832 219.961 211.086 226.182 215.233 221.442C231.207 203.179 229.543 176.024 224.871 153.692C219.675 128.857 207.991 105.481 191.662 86.0949C168.686 58.8126 127.985 32.137 89.31 32.3007C85.3676 24.8407 79.6034 18.2113 72.8019 13.3191C51.5346 -1.97297 22.5987 -2.1902 -2.01467 3.23309C-64.0732 16.9053 -107.199 72.4127 -106.212 135.509C-106.16 138.799 -100.535 139.199 -100.343 135.84Z" fill="#F3B03D"/>
</svg>
