<svg width="344" height="192" viewBox="0 0 344 192" fill="none" xmlns="http://www.w3.org/2000/svg">
<path d="M140.756 69.0311C123.499 78.0371 117.666 56.3053 124.261 44.3496C128.838 36.0496 136.379 29.6788 144.587 24.9695C156.38 38.3607 159.923 59.0269 140.756 69.0311ZM20.0383 187.392C4.54553 150.079 5.57278 106.367 25.6577 71.0438C44.1065 38.5935 88.678 -0.5948 129.223 14.1235C131.492 14.9486 133.697 16.069 135.8 17.4058C129.848 21.4804 124.454 26.3963 119.846 32.3111C109.03 46.1853 105.113 71.6777 125.529 79.5634C145.162 87.1464 162.243 65.767 163.764 48.2468C164.697 37.4625 161.003 27.818 154.665 20.0841C187.699 6.47007 227.925 11.3195 259.523 26.2304C277.727 34.8187 294.143 47.0155 307.417 62.1678C321.491 78.2404 337.301 102.366 331.969 124.617C330.503 130.73 339.742 133.173 341.412 127.1C347.845 103.705 334.527 79.982 320.6 61.9097C305.112 41.8122 284.418 25.8529 261.279 15.5068C228.719 0.944931 180.465 -5.35549 145.717 11.6259C138.92 6.62568 130.845 3.16615 122.592 1.72217C96.7893 -2.78841 70.6437 9.6108 50.8448 25.2067C0.924472 64.5278 -13.741 133.272 14.6109 189.648C16.0901 192.588 21.3278 190.5 20.0383 187.392Z" fill="#F3B03D"/>
</svg>
