<svg width="186" height="248" viewBox="0 0 186 248" fill="none" xmlns="http://www.w3.org/2000/svg">
<path d="M137.161 91.9669C139.464 96.373 142.951 104.972 140.33 109.952C140.704 114.493 138.132 115.575 132.615 113.203C130.778 111.623 128.94 110.041 127.105 108.46C118.515 99.3394 115.247 86.8811 115.987 73.975C124.785 77.5218 132.705 83.4357 137.161 91.9669ZM72.2167 60.1554C37.7483 68.9394 9.07116 98.753 2.06412 133.661C-6.6839 177.254 14.4078 221.219 49.0652 247.424C51.7714 249.47 55.2608 244.963 52.7293 242.703C2.41854 197.786 -8.31178 107.92 62.1876 76.2294C75.545 70.2258 90.6676 68.0139 105.072 70.7881C104.988 71.5711 104.897 72.3603 104.838 73.1353C103.398 91.9601 110.207 112.66 126.758 123.309C139.569 131.549 150.245 125.722 152.291 110.863C155.742 85.7715 138.859 69.7701 117.666 62.5365C124.336 33.762 149.03 6.97655 177.518 14.0927C185.081 15.9806 188.264 4.4469 180.692 2.39526C143.278 -7.7507 115.09 25.884 106.995 59.6853C95.061 57.3348 82.6396 57.4996 72.2167 60.1554Z" fill="#EC64A1"/>
</svg>
