<svg width="156" height="248" viewBox="0 0 156 248" fill="none" xmlns="http://www.w3.org/2000/svg">
<path d="M107.161 91.9669C109.464 96.373 112.951 104.972 110.33 109.952C110.704 114.493 108.132 115.575 102.615 113.203C100.778 111.623 98.9399 110.041 97.1054 108.46C88.5152 99.3395 85.2474 86.8811 85.987 73.9751C94.785 77.5219 102.705 83.4357 107.161 91.9669ZM42.2167 60.1554C7.74832 68.9395 -20.9288 98.753 -27.9359 133.661C-36.6839 177.254 -15.5922 221.219 19.0652 247.424C21.7714 249.47 25.2608 244.963 22.7293 242.703C-27.5815 197.786 -38.3118 107.92 32.1876 76.2295C45.545 70.2259 60.6676 68.0139 75.0715 70.7881C74.9876 71.5711 74.8973 72.3604 74.8375 73.1353C73.3983 91.9602 80.2069 112.66 96.7583 123.309C109.569 131.549 120.245 125.723 122.291 110.863C125.742 85.7716 108.859 69.7702 87.666 62.5365C94.3362 33.7621 119.03 6.97662 147.518 14.0928C155.081 15.9807 158.264 4.44696 150.692 2.39532C113.278 -7.75062 85.09 25.884 76.9947 59.6854C65.061 57.3348 52.6396 57.4997 42.2167 60.1554Z" fill="#EC64A1"/>
</svg>
